<?xml version="1.0" encoding="utf-8"?>
<!-- Generator: Adobe Illustrator 25.1.0, SVG Export Plug-In . SVG Version: 6.00 Build 0)  -->
<svg version="1.1" id="Capa_1" xmlns="http://www.w3.org/2000/svg" xmlns:xlink="http://www.w3.org/1999/xlink" x="0px" y="0px"
	 viewBox="0 0 511.7 403.4" style="enable-background:new 0 0 511.7 403.4;" xml:space="preserve">
<path d="M-0.3,111.3H113V-2H-0.3V111.3z M29.7,28H83v53.3H29.7V28z"/>
<path d="M149-2v113.3h362.7V-2H149z M481.7,81.3H179V28h302.7L481.7,81.3L481.7,81.3z"/>
<path d="M-0.3,258.3H113V145H-0.3V258.3z M29.7,175H83v53.3H29.7V175z"/>
<path d="M149,258.3h362.7V145H149V258.3z M179,175h302.7v53.3H179V175z"/>
<path d="M-0.3,405.3H113V292H-0.3V405.3z M29.7,322H83v53.3H29.7V322z"/>
<path d="M149,405.3h362.7V292H149V405.3z M179,322h302.7v53.3H179V322z"/>
</svg>
