<?xml version="1.0" encoding="utf-8"?>
<!-- Generator: Adobe Illustrator 25.1.0, SVG Export Plug-In . SVG Version: 6.00 Build 0)  -->
<svg version="1.1" id="Capa_1" xmlns="http://www.w3.org/2000/svg" xmlns:xlink="http://www.w3.org/1999/xlink" x="0px" y="0px"
	 viewBox="0 0 330 315.7" style="enable-background:new 0 0 330 315.7;" xml:space="preserve">
<polygon points="0,0 0,315.6 204.5,315.6 204.5,290.5 25.1,290.5 25.1,134.4 80.4,134.4 80.4,177.4 105.5,177.4 105.5,66.2 
	80.4,66.2 80.4,109.3 25.1,109.3 25.1,25.1 179.9,25.1 179.9,123.2 278.5,123.2 278.5,98.1 205.1,98.1 205.1,25.1 304.8,25.1 
	304.8,196.3 190.6,196.3 190.6,221.4 304.8,221.4 304.8,290.5 270.4,290.5 270.4,315.6 329.9,315.6 329.9,0 "/>
</svg>
